<svg width="113" height="30" viewBox="0 0 113 30" fill="none" xmlns="http://www.w3.org/2000/svg">
<path d="M53.9054 26.49C53.7934 26.5465 53.6814 26.603 53.5694 26.6595C53.4574 26.716 53.3313 26.7444 53.191 26.7449C52.7956 26.7828 52.4053 26.6495 52.0199 26.3451C51.6571 26.0574 51.4273 25.7202 51.3306 25.3335C51.2851 25.1597 51.2592 24.9831 51.253 24.8036C51.2664 24.6212 51.2602 24.4417 51.2343 24.2651C51.1826 23.9118 51.1079 23.4016 51.0102 22.7343C50.9096 22.0475 50.799 21.2919 50.6783 20.4676C50.5744 19.6209 50.4661 18.7447 50.3536 17.8391C50.2578 16.9109 50.179 16.0304 50.1172 15.1976C50.0554 14.3647 50.0163 13.6187 50 12.9595C50.0004 12.2779 50.0547 11.7588 50.1629 11.4022C50.2155 11.2141 50.3146 11.0693 50.4601 10.9678C50.6027 10.8467 50.754 10.7844 50.9139 10.7811C51.0905 10.7552 51.2645 10.7799 51.4359 10.855C51.6072 10.9301 51.7549 11.0488 51.8789 11.2111C51.9804 11.3566 52.0795 11.6227 52.1762 12.0095C52.27 12.3766 52.3584 12.7746 52.4412 13.2035C52.5437 13.6295 52.6236 14.0388 52.6811 14.4313C52.7553 14.8013 52.8054 15.0746 52.8312 15.2512C52.9533 14.8525 53.1074 14.3989 53.2935 13.8906C53.4768 13.3626 53.6869 12.8808 53.9238 12.4452C54.1775 11.9871 54.4735 11.613 54.8119 11.3229C55.1475 11.0132 55.527 10.8674 55.9506 10.8856C56.1723 10.8932 56.3927 10.9612 56.6119 11.0894C56.8283 11.1981 57.0279 11.3292 57.2108 11.4829C57.3798 11.6786 57.5207 11.8885 57.6337 12.1125C57.7635 12.314 57.8932 12.5155 58.0229 12.717C58.3532 13.3302 58.6359 13.9603 58.871 14.6075C59.1228 15.2321 59.3775 15.8764 59.6351 16.5403C59.7614 15.76 59.92 14.9951 60.111 14.2455C60.3187 13.4734 60.6022 12.7403 60.9616 12.0462C61.1789 11.6135 61.4285 11.1961 61.7104 10.794C61.9923 10.3919 62.3109 10.0345 62.666 9.72195C62.9149 9.50509 63.1794 9.32605 63.4594 9.18483C63.759 9.04073 64.0589 8.96675 64.359 8.9629C64.7376 8.94756 65.1026 9.04447 65.454 9.25362C65.8221 9.44028 66.1174 9.67767 66.34 9.96582C66.4415 10.1113 66.5318 10.2485 66.6108 10.3772C66.7094 10.5031 66.7898 10.6417 66.852 10.7929C66.8578 10.8322 66.8719 10.8602 66.8944 10.8769C67.1175 11.3053 67.3111 11.738 67.4754 12.175C67.6396 12.612 67.8038 13.049 67.968 13.4861C67.9962 13.5421 68.0458 13.6751 68.1166 13.8853C68.1846 14.0758 68.254 14.2761 68.3249 14.4862C68.3958 14.6963 68.4666 14.9065 68.5375 15.1166C68.6055 15.3071 68.6438 15.4318 68.6524 15.4907C68.8142 16.0483 69.004 16.5918 69.2219 17.1212C69.4397 17.6506 69.6477 18.1814 69.8459 18.7137C70.0441 19.246 70.2241 19.7909 70.386 20.3485C70.5449 20.8866 70.6548 21.4317 70.7156 21.9841C70.7415 22.1607 70.7267 22.3333 70.6712 22.5018C70.6353 22.6674 70.5798 22.8359 70.5046 23.0073C70.3988 23.2433 70.2368 23.4374 70.0186 23.5896C69.8003 23.7419 69.5763 23.8548 69.3465 23.9286C69.0804 24.0277 68.7887 24.0203 68.4713 23.9064C68.1764 23.8092 67.9249 23.6656 67.7166 23.4756C67.6042 23.3919 67.5 23.2968 67.4043 23.1906C67.3253 23.0618 67.2547 22.9218 67.1925 22.7706C67.1245 22.5801 67.028 22.2634 66.903 21.8207C66.7752 21.3583 66.6388 20.837 66.4937 20.2569C66.3486 19.6768 66.1894 19.0686 66.0161 18.4325C65.8595 17.7739 65.7087 17.1545 65.5636 16.5743C65.4157 15.9746 65.289 15.4519 65.1837 15.0063C65.0755 14.541 64.9972 14.2117 64.9488 14.0183C64.8464 13.5923 64.7341 13.1677 64.612 12.7446C64.4899 12.3215 64.3216 11.9251 64.1072 11.5556C63.7491 11.8486 63.4531 12.2227 63.2191 12.6779C63.0018 13.1106 62.8056 13.5503 62.6304 13.9969C62.272 14.9715 62.0076 15.9724 61.8372 16.9997C61.6836 18.0044 61.5722 19.023 61.5028 20.0555C61.4842 20.3389 61.4655 20.6222 61.4469 20.9056C61.4254 21.1693 61.373 21.4276 61.2897 21.6803C61.2064 21.9331 61.0753 22.1327 60.8963 22.2792C60.7173 22.4257 60.5115 22.526 60.2788 22.5801C60.0629 22.6117 59.8497 22.5928 59.6391 22.5234C59.4285 22.454 59.247 22.3102 59.0948 22.0919C59.0666 22.0359 59.0046 21.9548 58.9088 21.8485C58.8298 21.7198 58.7396 21.5826 58.6381 21.4371C58.5366 21.2916 58.4478 21.1643 58.3717 21.0552C58.2927 20.9264 58.2391 20.834 58.2109 20.778C58.0553 20.3999 57.9109 20.0301 57.7778 19.6687C57.6419 19.2877 57.5157 18.9053 57.3994 18.5214C57.3936 18.4821 57.3836 18.4135 57.3692 18.3153C57.3548 18.2172 57.335 18.15 57.3096 18.1136C57.267 17.9594 57.1748 17.6723 57.0331 17.252C56.911 16.8289 56.765 16.3792 56.595 15.9029C56.4447 15.4238 56.2987 14.9741 56.157 14.5538C56.0152 14.1336 55.9035 13.8492 55.8216 13.7009C55.4847 14.4117 55.2124 15.1532 55.0047 15.9253C54.8166 16.6945 54.6692 17.4678 54.5625 18.2452C54.4425 19.2049 54.3827 20.1658 54.3832 21.1279C54.3838 22.0901 54.4039 23.0493 54.4437 24.0057C54.4495 24.0449 54.4708 24.122 54.5077 24.2369C54.5445 24.3517 54.5658 24.4288 54.5716 24.4681C54.6793 24.7931 54.6638 25.1662 54.525 25.5874C54.4058 26.0058 54.1993 26.3066 53.9054 26.49Z" fill="white"/>
<path d="M78.995 22.1328C78.3447 22.4024 77.6595 22.5677 76.9393 22.6286C76.2192 22.6894 75.5151 22.6488 74.8271 22.5068C73.5928 22.2514 72.5952 21.6206 71.8342 20.6143C71.5684 20.2509 71.3657 19.8605 71.226 19.4429C71.0874 19.0049 71.0107 18.5603 70.9958 18.1089C70.9635 17.2471 71.0736 16.4037 71.3259 15.5788C71.5782 14.7538 71.9302 13.9756 72.3819 13.244C72.8336 12.5125 73.3345 11.8144 73.8847 11.15C74.4553 10.4867 75.083 9.8984 75.7678 9.38503C76.5378 8.81515 77.345 8.30885 78.1896 7.86612C79.0557 7.40416 79.9562 7.05679 80.891 6.82402C81.119 6.77574 81.3464 6.73766 81.5733 6.70979C81.8217 6.66268 82.0593 6.62519 82.2861 6.59731C82.5958 6.55374 82.9127 6.56177 83.2369 6.62141C83.561 6.68104 83.8517 6.78994 84.1087 6.94808C84.3874 7.087 84.6019 7.2734 84.7522 7.5073C84.9229 7.74237 85.0193 8.02435 85.0413 8.35322C85.0366 8.43485 85.0199 8.54651 84.9912 8.68819C84.983 8.83104 84.9538 8.98292 84.9035 9.14383C84.8749 9.28551 84.8361 9.4266 84.787 9.5671C84.7391 9.68719 84.693 9.77667 84.6487 9.83554C84.6008 9.95564 84.5133 10.053 84.3861 10.1275C84.259 10.2021 84.133 10.2563 84.0082 10.29C83.9855 10.3297 83.97 10.4209 83.9617 10.5638C83.9739 10.7078 83.9788 10.8002 83.9764 10.841C83.9227 11.0632 83.8899 11.2763 83.8782 11.4804C83.8868 11.6856 83.8745 11.8999 83.8411 12.1232C83.7485 13.0188 83.7376 13.9191 83.8083 14.8241C83.8994 15.7303 84.1056 16.5919 84.4271 17.409C84.5343 17.6813 84.642 17.9435 84.7503 18.1954C84.8802 18.4281 85.0312 18.6518 85.2031 18.8665C85.4146 19.1039 85.6585 19.3125 85.9348 19.4922C86.2123 19.6516 86.4784 19.8307 86.7331 20.0297C86.9878 20.2286 87.1381 20.4625 87.1841 20.7313C87.2516 20.9809 87.2375 21.2258 87.1417 21.466C87.0675 21.687 86.9129 21.8828 86.6779 22.0536C86.4644 22.2051 86.1944 22.2714 85.8678 22.2526C85.3361 22.2424 84.8 22.1296 84.2595 21.9142C83.7395 21.6999 83.2776 21.3661 82.8737 20.9129C82.4711 20.4392 82.1518 19.9396 81.9159 19.4141C81.7338 19.7312 81.5319 20.037 81.3102 20.3313C81.11 20.6064 80.8697 20.869 80.5891 21.119C80.3516 21.3306 80.095 21.5205 79.8191 21.6889C79.5636 21.8584 79.2889 22.0064 78.995 22.1328ZM76.0579 18.7386C76.3016 18.7731 76.5471 18.777 76.7943 18.7503C77.0427 18.7032 77.2833 18.6147 77.516 18.4848C77.6636 18.4114 77.7817 18.3158 77.8704 18.1981C77.9795 18.0815 78.0784 17.9644 78.1671 17.8466C78.4116 17.5127 78.605 17.1757 78.7475 16.8358C78.9115 16.4767 79.0557 16.1063 79.1801 15.7244C79.3775 15.142 79.5442 14.5578 79.6804 13.9719C79.8177 13.3655 79.9647 12.77 80.1212 12.1852C80.1248 12.124 80.1516 12.0129 80.2019 11.852C80.2521 11.6911 80.3029 11.52 80.3543 11.3387C80.4057 11.1573 80.4565 10.9862 80.5068 10.8253C80.557 10.6644 80.5941 10.5539 80.618 10.4939C79.9414 10.8644 79.2919 11.2979 78.6695 11.7944C78.0675 12.292 77.5136 12.8437 77.0077 13.4492C76.7656 13.7424 76.5223 14.056 76.2778 14.39C76.0549 14.7047 75.8615 15.0417 75.6974 15.4008C75.6268 15.5605 75.5424 15.7809 75.4443 16.0619C75.3474 16.3225 75.2601 16.5939 75.1824 16.876C75.1251 17.1594 75.0888 17.4337 75.0735 17.699C75.0582 17.9643 75.0975 18.1713 75.1913 18.3201C75.2851 18.4688 75.4125 18.5683 75.5734 18.6185C75.7343 18.6688 75.8958 18.7088 76.0579 18.7386Z" fill="white"/>
<path d="M90.5706 27.1578C90.2048 27.4643 89.7765 27.6136 89.2855 27.6058C88.8138 27.6196 88.4253 27.4334 88.1199 27.0472C87.9661 26.8745 87.8344 26.6724 87.7249 26.4409C87.6358 26.2105 87.5875 25.9825 87.58 25.7568C87.5953 25.4915 87.6218 25.0324 87.6594 24.3793C87.7175 23.7274 87.7706 22.9832 87.8189 22.1464C87.8875 21.3109 87.9591 20.4243 88.0336 19.4868C88.1081 18.5492 88.1797 17.6626 88.2483 16.8271C88.317 15.9915 88.3803 15.2478 88.4384 14.596C88.4964 13.9441 88.5331 13.4855 88.5484 13.2202C88.5555 13.0978 88.5523 12.9747 88.539 12.8511C88.5472 12.7082 88.5752 12.5768 88.6231 12.4567C88.6757 12.255 88.7775 12.0868 88.9286 11.9522C89.1001 11.8187 89.2789 11.7369 89.4649 11.7067C89.6509 11.6764 89.834 11.6972 90.0141 11.769C90.2147 11.842 90.3709 11.9739 90.4828 12.1646C90.71 12.4848 90.8425 12.8508 90.8802 13.2625C91.0058 13.9249 91.0798 14.5947 91.1022 15.2716C91.1462 15.9294 91.1698 16.586 91.1729 17.2414C91.5167 16.606 91.8995 16.0035 92.3214 15.4341C92.7444 14.8442 93.2444 14.3406 93.8213 13.9234C94.2914 13.582 94.8277 13.3365 95.4301 13.1869C96.0529 13.0385 96.6357 13.0517 97.1785 13.2263C97.6204 13.3746 98.0348 13.6442 98.4218 14.0351C98.7896 14.4043 99.0818 14.8409 99.2984 15.3448C99.5163 15.8283 99.6711 16.3389 99.763 16.8766C99.9345 17.8079 100.034 18.7452 100.062 19.6887C100.111 20.6129 100.148 21.557 100.175 22.5208C100.165 22.6841 100.17 22.9506 100.19 23.3203C100.21 23.69 100.228 24.0903 100.244 24.5212C100.261 24.9317 100.269 25.3314 100.267 25.7203C100.266 26.0888 100.241 26.3433 100.192 26.4838C100.039 27.0074 99.7615 27.3804 99.3596 27.603C98.9578 27.8255 98.5432 27.9142 98.1158 27.8691C97.71 27.8048 97.3418 27.6198 97.0114 27.314C96.6821 26.9879 96.5123 26.5584 96.5021 26.0254C96.4825 25.6557 96.473 25.2866 96.4738 24.9181C96.4746 24.5496 96.4951 24.1925 96.5356 23.8467C96.5956 22.8059 96.6652 21.7759 96.7444 20.7567C96.844 19.7387 96.8416 18.7148 96.7372 17.685C96.7215 17.6022 96.6979 17.478 96.6665 17.3123C96.6567 17.1275 96.6259 16.9517 96.5741 16.7849C96.5438 16.5989 96.5022 16.4327 96.4492 16.2863C96.4178 16.1207 96.3733 16.0055 96.3156 15.9407C96.2771 15.8976 96.2165 15.8838 96.1337 15.8995C96.0521 15.8948 95.9903 15.9015 95.9483 15.9196C95.6783 15.9859 95.4353 16.1152 95.2195 16.3075C95.0241 16.501 94.8094 16.6729 94.5755 16.8232C94.4688 16.899 94.3051 17.0738 94.0846 17.3478C93.8856 17.6025 93.7526 17.7791 93.6855 17.8776C92.994 18.8615 92.4407 19.9353 92.0255 21.099C91.6319 22.2434 91.3602 23.4051 91.2104 24.584C91.2045 24.686 91.2017 24.9111 91.2022 25.2592C91.2241 25.5881 91.222 25.803 91.1957 25.9038C91.142 26.126 91.0672 26.3571 90.9715 26.5973C90.8769 26.8171 90.7433 27.0039 90.5706 27.1578Z" fill="white"/>
<path d="M108.007 25.8463C107.424 26.0174 106.832 26.1676 106.23 26.2967C105.651 26.4066 105.064 26.4649 104.47 26.4716C104.161 26.4948 103.867 26.4471 103.587 26.3286C103.309 26.1897 103.073 26.0123 102.881 25.7965C102.709 25.5818 102.58 25.3389 102.493 25.0677C102.407 24.7761 102.404 24.479 102.483 24.1765C102.562 23.8739 102.711 23.5958 102.93 23.3423C103.126 23.1488 103.349 22.9979 103.601 22.8895C103.853 22.7812 104.105 22.6831 104.355 22.5952C104.564 22.5253 104.918 22.4228 105.417 22.2878C105.937 22.154 106.478 22.0111 107.039 21.8592C107.602 21.6869 108.123 21.5224 108.603 21.3658C109.105 21.1899 109.451 21.0461 109.642 20.9342C109.35 20.6717 109.033 20.4896 108.69 20.388C107.987 20.1631 107.26 19.9779 106.511 19.8324C105.762 19.6868 105.036 19.4812 104.335 19.2155C103.975 19.0719 103.616 18.8977 103.26 18.6928C102.903 18.488 102.601 18.2249 102.353 17.9035C101.913 17.3662 101.649 16.7879 101.562 16.1686C101.497 15.5301 101.563 14.9095 101.762 14.3066C101.982 13.6846 102.313 13.0996 102.754 12.5517C103.196 11.9834 103.705 11.5009 104.281 11.1041C104.706 10.8215 105.159 10.6121 105.638 10.4759C106.117 10.3193 106.615 10.2047 107.132 10.132C107.669 10.0402 108.224 10.0107 108.795 10.0437C109.387 10.0778 109.944 10.1917 110.465 10.3856C110.785 10.5065 111.094 10.6573 111.391 10.8383C111.687 11.0192 111.951 11.2391 112.182 11.4981C112.24 11.5629 112.306 11.6588 112.38 11.786C112.475 11.9143 112.56 12.0523 112.633 12.1998C112.728 12.3281 112.802 12.4655 112.855 12.6119C112.929 12.739 112.975 12.844 112.99 12.9268C113.031 13.2773 112.942 13.5895 112.721 13.8634C112.521 14.1385 112.246 14.2865 111.897 14.3073C111.733 14.3183 111.561 14.2777 111.382 14.1855C111.225 14.074 111.066 13.9932 110.905 13.943C110.723 13.8916 110.542 13.8402 110.361 13.7888C110.181 13.717 110 13.6554 109.818 13.604C109.535 13.5467 109.26 13.5308 108.992 13.5563C108.724 13.5818 108.456 13.6176 108.187 13.6635C107.856 13.7263 107.534 13.8101 107.221 13.9149C106.907 14.0197 106.622 14.1773 106.364 14.3877C105.893 14.7495 105.559 15.2115 105.363 15.7735C105.5 15.8837 105.768 16.0221 106.168 16.1884C106.589 16.356 107.039 16.5355 107.519 16.727C108.001 16.8981 108.452 17.0674 108.872 17.235C109.294 17.3821 109.584 17.491 109.744 17.5617C110.141 17.7689 110.529 17.9755 110.906 18.1815C111.304 18.3887 111.636 18.6638 111.903 19.0068C112.23 19.3737 112.482 19.7977 112.659 20.2789C112.856 20.7612 112.921 21.2359 112.853 21.7029C112.782 22.2312 112.588 22.7421 112.273 23.2359C111.959 23.7092 111.579 24.0967 111.131 24.3986C110.642 24.7184 110.134 24.9963 109.609 25.2322C109.083 25.4681 108.549 25.6728 108.007 25.8463Z" fill="white"/>
<path d="M20.1851 26.1091C19.6997 26.4731 19.1415 26.643 18.5105 26.6187C17.9038 26.5944 17.382 26.3882 16.9452 25.9998C16.751 25.8057 16.5933 25.5873 16.4719 25.3446C16.3506 25.1019 16.2535 24.847 16.1807 24.5801C16.1564 24.5073 16.1321 24.3859 16.1079 24.216C16.0836 24.0462 16.0593 23.8641 16.0351 23.67C16.0108 23.4516 15.9865 23.2574 15.9622 23.0875C15.9622 22.8934 15.9622 22.7599 15.9622 22.6871C15.8894 22.0075 15.8166 21.328 15.7438 20.6484C15.671 19.9689 15.5739 19.2893 15.4526 18.6098C15.4041 18.1972 15.3434 17.7968 15.2706 17.4085C15.1978 16.9959 15.1007 16.5833 14.9793 16.1707C14.8823 15.928 14.7852 15.6853 14.6881 15.4426C14.6153 15.1757 14.4939 14.9451 14.3241 14.751C13.9843 14.9451 13.6688 15.1878 13.3776 15.479C13.1106 15.7703 12.8558 16.0736 12.6131 16.3892C12.0549 17.093 11.5331 17.8089 11.0477 18.537C10.5623 19.2651 10.1254 20.0174 9.73714 20.7941C9.47017 21.2794 9.23961 21.777 9.04546 22.2866C8.87557 22.7963 8.72995 23.3181 8.60861 23.852C8.56007 24.119 8.51153 24.4102 8.46299 24.7257C8.41445 25.0169 8.30524 25.2839 8.13535 25.5266C7.91693 25.8178 7.61356 25.9756 7.22525 25.9998C6.86121 26.0241 6.54571 25.9028 6.27874 25.6358C6.1574 25.5145 6.06032 25.3688 5.98751 25.199C5.93897 25.0048 5.89043 24.8106 5.84189 24.6165C5.81762 24.5679 5.80549 24.4587 5.80549 24.2889C5.80549 24.0947 5.79335 23.9733 5.76908 23.9248C5.08954 20.8911 4.68909 17.821 4.56775 14.7146C4.4464 11.6081 4.51921 8.50158 4.78617 5.3951C4.81044 5.1524 4.83471 4.81263 4.85898 4.37578C4.90752 3.93893 4.96819 3.48994 5.041 3.02883C5.13808 2.54344 5.23516 2.10659 5.33223 1.71828C5.45358 1.3057 5.5992 1.00233 5.76908 0.808172C5.9147 0.662556 6.07245 0.529075 6.24234 0.407728C6.41222 0.26211 6.59425 0.165032 6.7884 0.116494C7.00683 0.043685 7.22525 0.00728065 7.44368 0.00728065C7.68637 -0.0169885 7.91693 0.0194159 8.13535 0.116494C8.4994 0.286379 8.82703 0.565478 9.11827 0.953789C9.4095 1.31783 9.53085 1.70614 9.48231 2.11872C9.43377 2.82254 9.33669 3.50208 9.19107 4.15735C9.04546 4.81263 8.91198 5.49217 8.79063 6.19599C8.64501 7.06969 8.51153 7.94339 8.39018 8.81709C8.26884 9.69079 8.17176 10.5645 8.09895 11.4382C8.00187 12.3604 7.95333 13.2705 7.95333 14.1685C7.95333 15.0665 7.96547 15.9644 7.98974 16.8624C8.01401 16.7896 8.08681 16.6682 8.20816 16.4984C8.32951 16.3042 8.46299 16.11 8.60861 15.9159C8.75422 15.7217 8.88771 15.5397 9.00905 15.3698C9.15467 15.1757 9.25175 15.0422 9.30029 14.9694C9.61579 14.5325 9.94343 14.12 10.2832 13.7316C10.623 13.3191 10.9991 12.9429 11.4117 12.6031C11.7758 12.3119 12.1762 12.0571 12.6131 11.8386C13.0499 11.6202 13.511 11.4746 13.9964 11.4018C14.4818 11.3532 14.9793 11.3896 15.489 11.511C15.9987 11.6323 16.4355 11.8508 16.7995 12.1663C17.2121 12.506 17.5762 12.8822 17.8917 13.2948C18.2072 13.7074 18.4863 14.1564 18.729 14.6418C19.2872 15.8067 19.6755 17.0323 19.8939 18.3186C20.1366 19.6049 20.3793 20.8911 20.622 22.1774C20.6948 22.59 20.7919 23.0026 20.9132 23.4151C21.0588 23.8277 21.1074 24.2403 21.0588 24.6529C21.0103 24.9199 20.9011 25.1868 20.7312 25.4538C20.5856 25.7207 20.4036 25.9392 20.1851 26.1091Z" fill="white"/>
<path d="M33.2715 14.3086C33.6067 15.479 33.6098 16.6328 33.2806 17.77C33.1419 18.2249 32.942 18.6624 32.6809 19.0827C32.4022 19.4855 32.0885 19.8534 31.7398 20.1865C31.3387 20.5721 30.885 20.888 30.3787 21.1341C29.8548 21.3802 29.3134 21.5652 28.7543 21.689C27.8807 21.8661 26.9805 21.9034 26.0537 21.8009C25.1093 21.681 24.2433 21.4211 23.4556 21.021C22.9129 20.7427 22.3964 20.4119 21.9059 20.0286C21.4154 19.6453 21.0034 19.2006 20.6699 18.6945C20.4768 18.3803 20.3186 18.0311 20.1952 17.6468C20.0718 17.2626 20.0534 16.8955 20.1399 16.5456C20.1398 16.5107 20.1484 16.4669 20.1657 16.4144C20.183 16.3445 20.1916 16.292 20.1916 16.257C20.1203 15.7677 20.1103 15.2695 20.1614 14.7624C20.2125 14.2378 20.3423 13.748 20.5509 13.293C20.777 12.8378 21.0643 12.4088 21.4129 12.0058C21.744 11.6029 22.1102 11.2435 22.5114 10.9278C23.2093 10.4015 23.995 9.99739 24.8683 9.71541C25.7417 9.43342 26.6242 9.32622 27.516 9.39382C28.1454 9.42714 28.7663 9.56537 29.3788 9.80852C29.9913 10.0342 30.5428 10.3474 31.0333 10.7482C31.5764 11.2013 32.0411 11.742 32.4273 12.3704C32.7961 12.9987 33.0775 13.6448 33.2715 14.3086ZM29.6584 16.4421C29.6927 16.1973 29.6833 15.9263 29.63 15.6293C29.5768 15.3147 29.4886 15.0178 29.3655 14.7384C29.2249 14.4416 29.0668 14.1798 28.8914 13.953C28.6985 13.7087 28.4882 13.5257 28.2607 13.4039C27.9631 13.2474 27.6307 13.1696 27.2636 13.1705C26.8789 13.1541 26.5032 13.2075 26.1364 13.3308C25.7696 13.4367 25.4204 13.5949 25.0888 13.8056C24.7571 13.9987 24.4868 14.2267 24.2777 14.4895C24.1731 14.6296 24.1036 14.7871 24.0691 14.962C24.0171 15.137 23.9914 15.3119 23.9918 15.4867C24.0098 15.6789 24.0453 15.8799 24.0983 16.0895C24.1337 16.2817 24.178 16.4739 24.2309 16.6661C24.2662 16.8058 24.3103 16.9281 24.363 17.0328C24.3982 17.1376 24.4335 17.2599 24.4688 17.3997C24.889 17.6433 25.3353 17.8344 25.8077 17.9731C26.28 18.0942 26.7521 18.1367 27.224 18.1005C27.5211 18.0647 27.8182 18.0203 28.1152 17.967C28.3948 17.8964 28.6567 17.7821 28.901 17.6241C29.093 17.4837 29.2586 17.3172 29.3979 17.1246C29.5373 16.9144 29.6241 16.6869 29.6584 16.4421Z" fill="white"/>
<path fill-rule="evenodd" clip-rule="evenodd" d="M45.9114 25.7017C47.2737 24.6682 48.2654 23.3288 48.8867 21.6837C49.2345 20.7473 49.4658 19.756 49.5806 18.7099C49.6751 17.6488 49.6032 16.6215 49.3648 15.6281C49.1422 14.7406 48.7735 13.902 48.2586 13.1122C47.7587 12.3022 47.1586 11.6064 46.4581 11.0248C45.4833 10.1773 44.3683 9.54021 43.1132 9.11355C41.8582 8.6869 40.5994 8.47742 39.3369 8.48513C38.5997 8.50478 37.8655 8.60522 37.1343 8.78645C36.3828 8.95264 35.6798 9.20187 35.0253 9.53413C34.3911 9.88142 33.8182 10.3369 33.3065 10.9006C32.8098 11.444 32.3917 12.0299 32.0521 12.6582C32.0221 12.6988 31.9668 12.7521 31.8864 12.8183C31.8211 12.8641 31.7734 12.9074 31.7433 12.9479C31.3413 13.2787 31.046 13.7198 30.8575 14.2715C30.6689 14.8231 30.551 15.3642 30.5038 15.8948C30.4536 16.7688 30.5473 17.6394 30.7849 18.5065C31.0225 19.3737 31.3356 20.2026 31.7242 20.9931C32.2918 22.136 33.0709 23.1843 34.0615 24.1378C35.0469 25.0559 36.122 25.7892 37.2869 26.3377C38.0415 26.6765 38.8283 26.9292 39.6475 27.0959C40.4463 27.2476 41.2444 27.273 42.0418 27.1722C42.7331 27.0872 43.414 26.9315 44.0843 26.7052C44.7493 26.4436 45.3583 26.1091 45.9114 25.7017ZM44.1725 20.9395C43.9933 21.3211 43.8238 21.6819 43.5754 21.9333C43.2541 22.2586 42.8741 22.5001 42.4354 22.6579C42.016 22.7898 41.5865 22.8538 41.1468 22.8501C40.61 22.8146 40.0953 22.6949 39.6027 22.491C39.1033 22.2419 38.6136 21.9798 38.1335 21.7047C37.3936 21.2373 36.7403 20.6529 36.1735 19.9517C35.626 19.2245 35.1752 18.4482 34.821 17.6228C34.9229 17.3765 35.0056 17.1562 35.0691 16.9618C35.1066 16.7482 35.1763 16.5183 35.2783 16.272C35.4119 15.9285 35.5586 15.5947 35.7182 15.2704C35.8711 14.901 36.0404 14.5638 36.226 14.2588C36.4184 13.999 36.6497 13.7681 36.9201 13.566C36.9803 13.5114 37.0367 13.4549 37.0922 13.3994C37.2616 13.2298 37.422 13.0692 37.6553 12.9995C38.2556 12.8407 38.9084 12.8012 39.6136 12.8809C40.338 12.9347 41.0307 13.0856 41.6916 13.3337C42.3718 13.5558 42.9881 13.8915 43.5404 14.3407C44.0859 14.7447 44.4929 15.2271 44.7614 15.7879C44.9645 16.2198 45.0743 16.7235 45.0907 17.2988C45.1004 17.8288 45.0456 18.3917 44.9264 18.9872C44.8005 19.5375 44.6034 20.0753 44.335 20.6006C44.2785 20.7139 44.2251 20.8276 44.1725 20.9395Z" fill="white"/>
</svg>
