<svg width="525" height="391" viewBox="0 0 525 391" fill="none" xmlns="http://www.w3.org/2000/svg">
<path d="M192.46 248.943C187.832 252.414 182.509 254.034 176.493 253.802C170.708 253.571 165.733 251.604 161.568 247.902C159.716 246.05 158.212 243.968 157.055 241.654C155.898 239.34 154.973 236.91 154.278 234.364C154.047 233.67 153.816 232.513 153.584 230.893C153.353 229.274 153.121 227.538 152.89 225.687C152.659 223.604 152.427 221.753 152.196 220.133C152.196 218.282 152.196 217.009 152.196 216.315C151.502 209.836 150.807 203.357 150.113 196.877C149.419 190.398 148.493 183.919 147.336 177.439C146.873 173.506 146.295 169.687 145.601 165.985C144.907 162.051 143.981 158.117 142.824 154.183C141.898 151.869 140.973 149.555 140.047 147.241C139.353 144.696 138.196 142.498 136.576 140.646C133.336 142.498 130.328 144.812 127.551 147.589C125.006 150.365 122.576 153.258 120.262 156.266C114.94 162.977 109.965 169.803 105.337 176.745C100.709 183.687 96.5434 190.861 92.841 198.266C90.2955 202.894 88.0972 207.637 86.246 212.497C84.6262 217.356 83.2378 222.332 82.0807 227.422C81.6179 229.968 81.1551 232.745 80.6923 235.753C80.2295 238.53 79.1882 241.075 77.5684 243.389C75.4858 246.166 72.5933 247.67 68.8908 247.902C65.4198 248.133 62.4115 246.976 59.8661 244.43C58.7091 243.273 57.7835 241.885 57.0893 240.265C56.6265 238.414 56.1637 236.563 55.7009 234.712C55.4695 234.249 55.3538 233.207 55.3538 231.588C55.3538 229.736 55.2381 228.579 55.0067 228.117C48.5274 199.191 44.7093 169.919 43.5522 140.299C42.3952 110.68 43.0894 81.0603 45.6349 51.4408C45.8663 49.1268 46.0977 45.8871 46.3291 41.7219C46.7919 37.5566 47.3704 33.2757 48.0646 28.879C48.9902 24.251 49.9158 20.0857 50.8414 16.3833C51.9984 12.4495 53.3868 9.55693 55.0067 7.70571C56.3951 6.3173 57.8992 5.04458 59.519 3.88757C61.1388 2.49915 62.8743 1.57354 64.7256 1.11074C66.8082 0.416525 68.8908 0.069419 70.9734 0.069419C73.2875 -0.16198 75.4858 0.185126 77.5684 1.11074C81.0394 2.73055 84.1634 5.39168 86.9402 9.09412C89.717 12.5652 90.874 16.2676 90.4112 20.2014C89.9484 26.9121 89.0228 33.3914 87.6344 39.6393C86.246 45.8871 84.9733 52.3664 83.8163 59.0771C82.4279 67.4075 81.1551 75.738 79.9981 84.0685C78.8411 92.399 77.9155 100.73 77.2213 109.06C76.2957 117.853 75.8329 126.531 75.8329 135.093C75.8329 143.655 75.9486 152.217 76.18 160.778C76.4114 160.084 77.1056 158.927 78.2626 157.307C79.4196 155.456 80.6923 153.605 82.0807 151.754C83.4692 149.903 84.7419 148.167 85.8989 146.547C87.2873 144.696 88.2129 143.423 88.6757 142.729C91.684 138.564 94.8079 134.63 98.0475 130.928C101.287 126.994 104.874 123.407 108.808 120.167C112.279 117.39 116.097 114.961 120.262 112.878C124.427 110.796 128.824 109.407 133.452 108.713C138.08 108.25 142.824 108.597 147.683 109.754C152.543 110.911 156.708 112.994 160.179 116.002C164.113 119.242 167.584 122.828 170.592 126.762C173.6 130.696 176.262 134.977 178.576 139.605C183.898 150.712 187.6 162.398 189.683 174.663C191.997 186.927 194.311 199.191 196.625 211.456C197.319 215.389 198.245 219.323 199.402 223.257C200.79 227.191 201.253 231.125 200.79 235.059C200.327 237.604 199.286 240.15 197.666 242.695C196.278 245.24 194.542 247.323 192.46 248.943Z" fill="white"/>
<path d="M32.5118 379.348C31.5794 379.818 30.647 380.289 29.7146 380.759C28.7822 381.229 27.7322 381.466 26.5646 381.47C23.2732 381.785 20.0235 380.676 16.8155 378.142C13.7949 375.747 11.882 372.94 11.0768 369.72C10.6982 368.274 10.4829 366.803 10.431 365.309C10.5424 363.791 10.4905 362.296 10.2753 360.826C9.8447 357.885 9.22279 353.638 8.4095 348.083C7.5723 342.365 6.65138 336.075 5.64674 329.213C4.78156 322.164 3.8805 314.87 2.94355 307.33C2.14606 299.604 1.49006 292.274 0.975553 285.34C0.46104 278.407 0.135856 272.196 0 266.709C0.00359973 261.035 0.455584 256.713 1.35595 253.745C1.79418 252.179 2.61895 250.973 3.83028 250.128C5.01769 249.12 6.27686 248.602 7.60779 248.574C9.07817 248.359 10.5267 248.564 11.9533 249.189C13.3799 249.815 14.6093 250.803 15.6414 252.154C16.4863 253.365 17.3113 255.581 18.1165 258.8C18.8977 261.857 19.6331 265.17 20.3227 268.74C21.1757 272.287 21.8414 275.694 22.3198 278.961C22.9377 282.041 23.3542 284.317 23.5695 285.787C24.5854 282.468 25.8683 278.692 27.4181 274.46C28.944 270.065 30.693 266.054 32.6653 262.427C34.777 258.614 37.2414 255.499 40.0585 253.085C42.8517 250.506 46.0116 249.293 49.5381 249.444C51.3831 249.507 53.2182 250.073 55.0433 251.141C56.8445 252.045 58.5062 253.137 60.0285 254.416C61.4353 256.046 62.6089 257.793 63.5495 259.658C64.6295 261.335 65.7095 263.013 66.7895 264.69C69.5393 269.795 71.8927 275.041 73.8496 280.428C75.946 285.628 78.0663 290.992 80.2105 296.518C81.2621 290.023 82.5826 283.655 84.1721 277.415C85.9011 270.987 88.2617 264.884 91.2539 259.106C93.0627 255.504 95.1406 252.029 97.4874 248.681C99.8343 245.334 102.486 242.359 105.443 239.757C107.515 237.952 109.716 236.461 112.047 235.285C114.541 234.086 117.038 233.47 119.536 233.438C122.688 233.31 125.727 234.117 128.652 235.858C131.716 237.412 134.175 239.388 136.028 241.787C136.873 242.998 137.624 244.14 138.282 245.212C139.103 246.26 139.772 247.413 140.29 248.672C140.338 248.999 140.456 249.232 140.643 249.372C142.5 252.938 144.112 256.54 145.479 260.178C146.846 263.816 148.213 267.454 149.581 271.092C149.816 271.559 150.228 272.666 150.818 274.416C151.384 276.002 151.962 277.669 152.552 279.419C153.142 281.168 153.732 282.917 154.321 284.666C154.887 286.252 155.206 287.29 155.278 287.78C156.625 292.423 158.205 296.947 160.019 301.354C161.832 305.762 163.564 310.181 165.214 314.612C166.864 319.043 168.363 323.579 169.71 328.221C171.033 332.7 171.948 337.239 172.454 341.837C172.669 343.308 172.546 344.744 172.084 346.147C171.785 347.526 171.323 348.928 170.697 350.355C169.817 352.32 168.468 353.936 166.651 355.203C164.834 356.47 162.969 357.411 161.057 358.025C158.841 358.85 156.412 358.788 153.77 357.84C151.316 357.031 149.222 355.836 147.488 354.254C146.552 353.557 145.685 352.766 144.888 351.881C144.23 350.809 143.642 349.644 143.124 348.384C142.558 346.799 141.755 344.163 140.715 340.477C139.651 336.627 138.515 332.288 137.307 327.459C136.099 322.629 134.774 317.566 133.331 312.271C132.028 306.788 130.772 301.631 129.565 296.802C128.333 291.809 127.279 287.458 126.402 283.748C125.501 279.875 124.849 277.133 124.447 275.523C123.594 271.977 122.659 268.442 121.643 264.92C120.626 261.397 119.225 258.098 117.44 255.022C114.459 257.461 111.995 260.575 110.047 264.365C108.238 267.967 106.604 271.627 105.146 275.345C102.162 283.459 99.9609 291.791 98.5429 300.342C97.2644 308.707 96.3365 317.187 95.7593 325.782C95.604 328.141 95.4488 330.5 95.2935 332.859C95.1144 335.055 94.6782 337.204 93.9849 339.308C93.2917 341.412 92.2 343.074 90.7098 344.294C89.2195 345.513 87.5061 346.348 85.5695 346.798C83.7724 347.062 81.9971 346.904 80.2438 346.327C78.4904 345.749 76.9801 344.552 75.7128 342.735C75.4776 342.268 74.9616 341.593 74.1645 340.708C73.507 339.637 72.7558 338.495 71.9109 337.284C71.066 336.072 70.3268 335.012 69.6931 334.104C69.0356 333.032 68.5892 332.263 68.3541 331.797C67.0588 328.649 65.8571 325.571 64.7492 322.562C63.6173 319.39 62.567 316.207 61.5985 313.011C61.5507 312.684 61.467 312.112 61.3474 311.295C61.2278 310.478 61.0623 309.919 60.8511 309.616C60.4964 308.333 59.7292 305.942 58.5494 302.443C57.533 298.921 56.3174 295.177 54.9025 291.212C53.651 287.224 52.4354 283.48 51.2557 279.981C50.0759 276.483 49.1453 274.116 48.4638 272.881C45.6589 278.798 43.392 284.971 41.663 291.398C40.0974 297.802 38.8705 304.24 37.9823 310.711C36.9827 318.701 36.4851 326.7 36.4896 334.71C36.4942 342.719 36.6621 350.705 36.9933 358.667C37.0412 358.993 37.2186 359.635 37.5255 360.591C37.8323 361.547 38.0097 362.189 38.0576 362.516C38.9543 365.221 38.825 368.328 37.6697 371.834C36.6777 375.317 34.9584 377.822 32.5118 379.348Z" fill="white"/>
<path d="M241.378 343.075C235.965 345.32 230.26 346.696 224.265 347.202C218.27 347.709 212.409 347.371 206.682 346.189C196.406 344.062 188.101 338.811 181.766 330.434C179.554 327.409 177.866 324.158 176.703 320.682C175.549 317.036 174.911 313.334 174.786 309.577C174.518 302.403 175.434 295.382 177.534 288.514C179.635 281.646 182.565 275.167 186.325 269.077C190.086 262.987 194.256 257.177 198.836 251.645C203.586 246.123 208.812 241.226 214.513 236.952C220.922 232.208 227.643 227.993 234.673 224.307C241.884 220.462 249.38 217.57 257.162 215.632C259.06 215.23 260.954 214.913 262.842 214.681C264.91 214.289 266.888 213.977 268.777 213.745C271.354 213.382 273.993 213.449 276.691 213.945C279.39 214.442 281.809 215.348 283.949 216.665C286.269 217.821 288.055 219.373 289.306 221.32C290.727 223.277 291.53 225.625 291.713 228.362C291.673 229.042 291.535 229.971 291.296 231.151C291.228 232.34 290.984 233.605 290.566 234.944C290.328 236.124 290.004 237.298 289.596 238.468C289.197 239.467 288.814 240.212 288.444 240.702C288.046 241.702 287.317 242.513 286.259 243.133C285.2 243.754 284.152 244.205 283.113 244.486C282.923 244.816 282.794 245.576 282.726 246.765C282.827 247.964 282.868 248.733 282.848 249.073C282.401 250.922 282.128 252.696 282.03 254.395C282.102 256.104 281.999 257.888 281.722 259.747C280.951 267.202 280.86 274.697 281.448 282.231C282.207 289.775 283.924 296.948 286.6 303.75C287.492 306.017 288.389 308.2 289.291 310.297C290.372 312.234 291.628 314.097 293.06 315.884C294.821 317.86 296.851 319.597 299.151 321.093C301.461 322.419 303.676 323.91 305.797 325.567C307.917 327.223 309.169 329.17 309.551 331.408C310.113 333.486 309.996 335.525 309.199 337.524C308.581 339.364 307.294 340.994 305.337 342.415C303.56 343.677 301.312 344.229 298.594 344.072C294.167 343.987 289.704 343.048 285.205 341.255C280.876 339.471 277.03 336.693 273.668 332.919C270.316 328.976 267.658 324.817 265.694 320.443C264.179 323.083 262.498 325.628 260.652 328.078C258.986 330.368 256.985 332.554 254.649 334.635C252.672 336.397 250.536 337.978 248.239 339.38C246.112 340.791 243.825 342.023 241.378 343.075ZM216.927 314.819C218.956 315.106 221 315.139 223.058 314.917C225.126 314.524 227.129 313.788 229.066 312.706C230.295 312.095 231.278 311.3 232.016 310.319C232.925 309.349 233.748 308.374 234.486 307.394C236.521 304.613 238.132 301.808 239.318 298.979C240.683 295.989 241.884 292.905 242.919 289.726C244.563 284.878 245.951 280.015 247.084 275.137C248.228 270.089 249.451 265.131 250.754 260.263C250.784 259.753 251.007 258.829 251.426 257.489C251.844 256.15 252.267 254.725 252.695 253.216C253.122 251.706 253.546 250.282 253.964 248.942C254.382 247.603 254.69 246.683 254.89 246.183C249.257 249.267 243.85 252.876 238.669 257.009C233.657 261.152 229.046 265.745 224.835 270.786C222.819 273.227 220.794 275.837 218.759 278.617C216.903 281.238 215.292 284.043 213.927 287.032C213.339 288.362 212.637 290.196 211.82 292.536C211.013 294.705 210.286 296.964 209.639 299.314C209.162 301.672 208.86 303.956 208.733 306.165C208.606 308.373 208.933 310.097 209.713 311.335C210.494 312.573 211.555 313.401 212.894 313.819C214.234 314.237 215.578 314.571 216.927 314.819Z" fill="white"/>
<path d="M337.743 384.907C334.699 387.459 331.133 388.702 327.045 388.637C323.118 388.751 319.884 387.201 317.342 383.987C316.061 382.549 314.965 380.867 314.053 378.939C313.311 377.021 312.91 375.123 312.847 373.245C312.975 371.036 313.195 367.213 313.508 361.777C313.992 356.35 314.434 350.154 314.836 343.189C315.407 336.233 316.003 328.852 316.623 321.047C317.244 313.242 317.84 305.862 318.411 298.906C318.982 291.95 319.51 285.759 319.993 280.332C320.476 274.905 320.782 271.088 320.909 268.879C320.968 267.86 320.942 266.836 320.83 265.807C320.899 264.617 321.133 263.523 321.531 262.523C321.969 260.844 322.817 259.444 324.074 258.323C325.502 257.212 326.99 256.531 328.539 256.279C330.087 256.028 331.611 256.201 333.111 256.798C334.781 257.406 336.081 258.504 337.012 260.092C338.904 262.757 340.007 265.804 340.321 269.231C341.366 274.746 341.982 280.321 342.169 285.957C342.535 291.433 342.731 296.899 342.758 302.355C345.62 297.065 348.806 292.05 352.318 287.309C355.84 282.399 360.002 278.207 364.805 274.733C368.719 271.891 373.183 269.847 378.198 268.602C383.383 267.367 388.234 267.476 392.753 268.93C396.432 270.165 399.882 272.409 403.104 275.663C406.165 278.737 408.598 282.372 410.401 286.566C412.215 290.591 413.504 294.842 414.268 299.318C415.697 307.071 416.525 314.874 416.754 322.728C417.163 330.422 417.477 338.281 417.696 346.305C417.618 347.665 417.66 349.883 417.824 352.961C417.987 356.038 418.136 359.371 418.27 362.958C418.414 366.375 418.478 369.703 418.462 372.941C418.456 376.008 418.248 378.127 417.84 379.297C416.566 383.655 414.256 386.761 410.911 388.613C407.565 390.466 404.114 391.205 400.556 390.829C397.178 390.293 394.113 388.753 391.362 386.208C388.621 383.493 387.207 379.917 387.122 375.481C386.959 372.403 386.88 369.33 386.887 366.262C386.893 363.195 387.064 360.222 387.401 357.343C387.9 348.679 388.48 340.104 389.139 331.619C389.969 323.144 389.949 314.621 389.079 306.048C388.949 305.358 388.752 304.324 388.491 302.946C388.409 301.407 388.153 299.943 387.721 298.555C387.47 297.006 387.123 295.622 386.682 294.404C386.421 293.025 386.05 292.066 385.57 291.527C385.249 291.168 384.745 291.053 384.055 291.184C383.376 291.145 382.861 291.201 382.512 291.351C380.264 291.903 378.242 292.98 376.445 294.581C374.818 296.191 373.031 297.623 371.084 298.874C370.195 299.505 368.833 300.96 366.997 303.241C365.34 305.361 364.233 306.831 363.674 307.651C357.918 315.842 353.312 324.781 349.856 334.469C346.579 343.996 344.317 353.666 343.069 363.481C343.02 364.33 342.998 366.204 343.001 369.102C343.184 371.84 343.166 373.629 342.947 374.468C342.5 376.318 341.878 378.242 341.081 380.241C340.293 382.071 339.181 383.626 337.743 384.907Z" fill="white"/>
<path d="M482.899 373.989C478.044 375.414 473.114 376.664 468.109 377.739C463.284 378.654 458.398 379.139 453.451 379.195C450.883 379.388 448.435 378.991 446.105 378.005C443.785 376.848 441.825 375.372 440.224 373.575C438.793 371.788 437.716 369.765 436.994 367.508C436.282 365.08 436.254 362.607 436.911 360.088C437.567 357.569 438.809 355.254 440.635 353.144C442.262 351.533 444.124 350.277 446.221 349.375C448.319 348.473 450.411 347.656 452.499 346.924C454.237 346.343 457.184 345.49 461.34 344.366C465.665 343.251 470.166 342.062 474.841 340.797C479.526 339.363 483.866 337.994 487.862 336.69C492.037 335.226 494.919 334.028 496.507 333.097C494.076 330.912 491.436 329.396 488.587 328.55C482.729 326.678 476.681 325.136 470.444 323.924C464.207 322.713 458.17 321.001 452.331 318.789C449.332 317.594 446.347 316.143 443.377 314.438C440.408 312.733 437.892 310.542 435.83 307.867C432.167 303.394 429.973 298.58 429.248 293.424C428.702 288.109 429.255 282.942 430.908 277.924C432.741 272.745 435.493 267.875 439.165 263.314C442.847 258.583 447.084 254.566 451.877 251.263C455.422 248.91 459.187 247.167 463.173 246.033C467.169 244.73 471.315 243.775 475.611 243.171C480.087 242.406 484.703 242.161 489.46 242.435C494.387 242.719 499.02 243.668 503.359 245.282C506.028 246.288 508.597 247.544 511.067 249.05C513.537 250.556 515.733 252.387 517.654 254.543C518.135 255.082 518.685 255.881 519.306 256.94C520.097 258.008 520.797 259.156 521.408 260.385C522.199 261.453 522.815 262.596 523.256 263.815C523.877 264.874 524.253 265.748 524.383 266.437C524.727 269.354 523.98 271.953 522.144 274.234C520.478 276.524 518.191 277.756 515.283 277.929C513.914 278.021 512.485 277.683 510.995 276.915C509.685 275.987 508.36 275.314 507.021 274.896C505.511 274.468 504.002 274.04 502.492 273.612C500.993 273.015 499.488 272.502 497.979 272.074C495.62 271.597 493.326 271.465 491.098 271.677C488.87 271.89 486.637 272.187 484.399 272.569C481.642 273.092 478.959 273.79 476.352 274.662C473.745 275.535 471.368 276.847 469.222 278.598C465.298 281.611 462.52 285.456 460.886 290.135C462.027 291.053 464.261 292.204 467.591 293.589C471.09 294.984 474.839 296.479 478.838 298.073C482.847 299.497 486.601 300.907 490.1 302.302C493.609 303.527 496.028 304.433 497.358 305.021C500.668 306.746 503.892 308.466 507.032 310.181C510.342 311.906 513.108 314.196 515.329 317.052C518.051 320.106 520.149 323.636 521.622 327.642C523.266 331.657 523.805 335.608 523.24 339.496C522.646 343.894 521.037 348.148 518.414 352.258C515.8 356.198 512.631 359.425 508.907 361.937C504.833 364.6 500.608 366.913 496.234 368.877C491.859 370.841 487.414 372.545 482.899 373.989Z" fill="white"/>
<path d="M317.235 136.429C320.431 147.588 320.46 158.589 317.321 169.432C315.999 173.769 314.093 177.941 311.603 181.948C308.946 185.789 305.955 189.297 302.63 192.473C298.806 196.15 294.48 199.161 289.652 201.508C284.658 203.854 279.495 205.618 274.164 206.799C265.835 208.487 257.251 208.843 248.415 207.866C239.411 206.723 231.153 204.244 223.643 200.43C218.469 197.776 213.543 194.622 208.867 190.967C204.19 187.313 200.262 183.073 197.082 178.247C195.241 175.251 193.732 171.922 192.556 168.258C191.379 164.594 191.203 161.094 192.028 157.758C192.027 157.425 192.109 157.008 192.275 156.507C192.44 155.84 192.522 155.34 192.521 155.007C191.842 150.341 191.746 145.591 192.234 140.756C192.721 135.754 193.959 131.084 195.948 126.745C198.103 122.405 200.843 118.314 204.166 114.472C207.323 110.63 210.815 107.204 214.641 104.194C221.295 99.1757 228.785 95.3224 237.113 92.6338C245.44 89.9451 253.855 88.923 262.357 89.5675C268.359 89.8852 274.279 91.2032 280.119 93.5216C285.959 95.6732 291.217 98.6598 295.894 102.481C301.073 106.802 305.503 111.957 309.186 117.948C312.702 123.94 315.385 130.1 317.235 136.429ZM282.785 156.771C283.112 154.437 283.022 151.853 282.514 149.021C282.007 146.022 281.166 143.191 279.992 140.527C278.651 137.697 277.144 135.2 275.472 133.038C273.632 130.709 271.628 128.964 269.458 127.803C266.62 126.31 263.451 125.568 259.951 125.577C256.284 125.42 252.701 125.93 249.204 127.106C245.706 128.115 242.376 129.624 239.215 131.632C236.052 133.474 233.475 135.648 231.481 138.153C230.484 139.489 229.821 140.991 229.492 142.659C228.997 144.327 228.751 145.994 228.755 147.661C228.927 149.494 229.265 151.41 229.771 153.409C230.109 155.242 230.53 157.074 231.035 158.906C231.372 160.239 231.792 161.405 232.294 162.403C232.63 163.403 232.967 164.569 233.304 165.901C237.31 168.224 241.565 170.047 246.069 171.368C250.573 172.523 255.074 172.928 259.574 172.583C262.406 172.242 265.239 171.818 268.071 171.311C270.736 170.637 273.234 169.547 275.563 168.041C277.393 166.703 278.973 165.115 280.301 163.278C281.63 161.274 282.457 159.105 282.785 156.771Z" fill="white"/>
<path fill-rule="evenodd" clip-rule="evenodd" d="M437.752 245.059C450.742 235.204 460.198 222.434 466.121 206.748C469.437 197.82 471.643 188.368 472.738 178.394C473.639 168.277 472.953 158.482 470.68 149.009C468.558 140.548 465.042 132.552 460.133 125.022C455.367 117.298 449.644 110.664 442.965 105.119C433.671 97.0379 423.04 90.9633 411.073 86.8953C399.106 82.8272 387.104 80.8299 375.066 80.9034C368.037 81.0908 361.037 82.0485 354.065 83.7764C346.9 85.361 340.197 87.7374 333.957 90.9054C327.91 94.2167 322.447 98.5597 317.568 103.934C312.833 109.116 308.846 114.702 305.608 120.692C305.322 121.079 304.795 121.588 304.029 122.219C303.405 122.656 302.95 123.068 302.664 123.455C298.831 126.608 296.015 130.815 294.218 136.075C292.42 141.334 291.296 146.493 290.845 151.552C290.366 159.886 291.26 168.186 293.525 176.455C295.791 184.723 298.776 192.626 302.482 200.164C307.894 211.061 315.322 221.056 324.767 230.147C334.162 238.902 344.413 245.893 355.521 251.122C362.715 254.353 370.217 256.763 378.028 258.352C385.645 259.799 393.255 260.041 400.857 259.08C407.449 258.269 413.94 256.785 420.331 254.627C426.672 252.132 432.479 248.943 437.752 245.059ZM421.173 199.653C419.464 203.291 417.848 206.731 415.479 209.128C412.416 212.229 408.793 214.532 404.61 216.037C400.611 217.295 396.516 217.905 392.324 217.869C387.205 217.531 382.297 216.389 377.601 214.445C372.84 212.07 368.17 209.571 363.592 206.949C356.538 202.492 350.309 196.92 344.905 190.234C339.684 183.3 335.386 175.898 332.009 168.029C332.981 165.68 333.769 163.579 334.375 161.726C334.732 159.69 335.397 157.498 336.369 155.149C337.643 151.874 339.042 148.691 340.564 145.6C342.022 142.077 343.636 138.862 345.406 135.954C347.24 133.477 349.445 131.275 352.023 129.348C352.597 128.828 353.135 128.289 353.664 127.759C355.279 126.142 356.808 124.611 359.033 123.947C364.757 122.433 370.981 122.056 377.705 122.816C384.612 123.329 391.216 124.768 397.519 127.133C404.004 129.251 409.88 132.452 415.146 136.735C420.347 140.587 424.228 145.186 426.788 150.533C428.724 154.652 429.771 159.454 429.928 164.939C430.02 169.993 429.498 175.359 428.361 181.038C427.161 186.285 425.281 191.413 422.723 196.421C422.184 197.501 421.675 198.585 421.173 199.653Z" fill="white"/>
</svg>
